<svg width="600" height="100" viewBox="0 0 600 100" xmlns="http://www.w3.org/2000/svg" font-family="'Georgia', 'Times New Roman', serif">
  <defs>
    <linearGradient id="bgTitle" x1="0%" y1="0%" x2="100%" y2="0%">
      <stop offset="0%" stop-color="#7d681f"/>
      <stop offset="50%" stop-color="#be9e44"/>
      <stop offset="100%" stop-color="#7d681f"/>
    </linearGradient>
    <filter id="sombra" x="-20%" y="-20%" width="140%" height="140%">
      <feDropShadow dx="0" dy="4" stdDeviation="6" flood-color="#000" flood-opacity="0.5"/>
    </filter>
  </defs>
  <rect width="600" height="100" fill="#1a1a1a" rx="10" ry="10" filter="url(#sombra)"/>
  <rect x="2" y="2" width="596" height="96" fill="none" stroke="url(#bgTitle)" stroke-width="2" rx="8" ry="8"/>
  
  <!-- Dragón + nubes de fondo (sin caracteres) -->
  <g opacity="0.15" fill="none" stroke="#be9e44" stroke-width="2">
    <path d="M60 40 Q 100 20, 150 30 T 230 20 T 310 40 T 390 30 T 470 40 T 540 30" stroke-linecap="round"/>
    <circle cx="50" cy="35" r="8" fill="#be9e44" opacity="0.2"/>
    <circle cx="560" cy="45" r="10" fill="#be9e44" opacity="0.2"/>
    <path d="M200 70 Q 240 60, 280 70 T 350 60 T 420 70 T 490 60" stroke="#be9e44" stroke-width="1.5" opacity="0.3"/>
  </g>
  
  <!-- Título principal -->
  <text x="300" y="60" fill="#be9e44" font-size="32" font-weight="bold" text-anchor="middle" letter-spacing="2">٩(ˊᗜˋ )و ARTÍCULOS ٩(ˊᗜˋ )و</text>
  
  <!-- Línea decorativa inferior -->
  <line x1="150" y1="80" x2="450" y2="80" stroke="#be9e44" stroke-width="1.5" opacity="0.6"/>
</svg>