<svg width="800" height="200" viewBox="0 0 800 200" xmlns="http://www.w3.org/2000/svg" font-family="'Segoe UI', system-ui, sans-serif">
  <defs>
    <linearGradient id="bg" x1="0%" y1="0%" x2="100%" y2="100%">
      <stop offset="0%" style="stop-color:#0d1117"/>
      <stop offset="100%" style="stop-color:#090c12"/>
    </linearGradient>
    <linearGradient id="accent" x1="0%" y1="0%" x2="100%" y2="0%">
      <stop offset="0%" style="stop-color:#1e3a5f"/>
      <stop offset="100%" style="stop-color:#2d5a8e"/>
    </linearGradient>
  </defs>

  <rect width="800" height="200" rx="6" fill="url(#bg)"/>
  <rect x="1" y="1" width="798" height="198" rx="6" fill="none" stroke="#1e3a5f" stroke-width="1.2"/>
  <rect x="0" y="0" width="4" height="200" rx="3" fill="url(#accent)"/>

  <rect x="20" y="18" width="34" height="22" rx="3" fill="#1e3a5f"/>
  <text x="37" y="33" fill="#7db3e8" font-size="12" font-weight="bold" text-anchor="middle">03</text>

  <text x="66" y="36" fill="#e8f0f8" font-size="22" font-weight="600">Ojo de Sauron</text>

  <line x1="20" y1="50" x2="780" y2="50" stroke="#1e3a5f" stroke-width="1"/>

  <text x="20" y="76" fill="#8ba8c8" font-size="14">Monitoreo y auditoría de actividad en sistemas locales. Logging visual y captura</text>
  <text x="20" y="98" fill="#8ba8c8" font-size="14">de pantalla programática con almacenamiento estructurado para análisis forense.</text>

  <rect x="20"  y="116" width="74"  height="24" rx="3" fill="#0d1a2e" stroke="#1e3a5f" stroke-width="1"/>
  <text x="57"  y="132" fill="#7db3e8" font-size="12" font-weight="500" text-anchor="middle">OpenCV</text>

  <rect x="102" y="116" width="62"  height="24" rx="3" fill="#0d1a2e" stroke="#1e3a5f" stroke-width="1"/>
  <text x="133" y="132" fill="#7db3e8" font-size="12" font-weight="500" text-anchor="middle">SQLite</text>

  <rect x="172" y="116" width="86"  height="24" rx="3" fill="#0d1a2e" stroke="#1e3a5f" stroke-width="1"/>
  <text x="215" y="132" fill="#7db3e8" font-size="12" font-weight="500" text-anchor="middle">PyAutoGUI</text>

  <line x1="20" y1="154" x2="780" y2="154" stroke="#1e3a5f" stroke-width="1"/>

  <rect x="20" y="164" width="170" height="28" rx="4" fill="#1e3a5f"/>
  <text x="105" y="182" fill="#e8f0f8" font-size="13" font-weight="600" text-anchor="middle">Ver Repositorio →</text>
</svg>
